<svg id="eQh167ZGxYJ1" xmlns="http://www.w3.org/2000/svg" xmlns:xlink="http://www.w3.org/1999/xlink" viewBox="0 0 41.91 27" shape-rendering="geometricPrecision" text-rendering="geometricPrecision"><g><g><g><path d="M11.83,10.98c-.17.16-.38.29-.65.4-.26.11-.58.17-.96.17-.44,0-.82-.09-1.12-.27s-.53-.42-.69-.72c-.15-.3-.23-.63-.24-1h4.71L11.53,6.41c-.43-.22-.92-.34-1.49-.34-.65,0-1.21.14-1.67.42s-.81.65-1.05,1.13-.36,1.01-.36,1.6c0,.64.13,1.21.38,1.71s.62.88,1.1,1.16s1.04.42,1.69.42c.48,0,.89-.05,1.23-.15s.62-.23.86-.41c.23-.18.43-.38.6-.62l-.63-.78c-.07.12-.2.26-.36.42v.01ZM8.44,7.9c.12-.24.32-.44.58-.61s.61-.25,1.05-.25.75.09,1,.26.43.38.54.62.17.46.17.67h-3.55c.02-.22.09-.45.21-.69Z" fill="#fff" stroke-width="0"/><path d="M18.77,6.08l-.03.06c-.47.32-.86.74-1.14,1.24-.33.58-.49,1.23-.49,1.93c0,.19.01.38.04.56l-.98,2.28h-1.52L13.57,9.63l-.27-.62-.52-1.2-.08-.18-.48-1.11-.19-.45h1.38l1.98,4.89l1.98-4.89h1.38l.02.01Z" fill="#fff" stroke-width="0"/><path d="M29.22,7.37l-2.05,4.79h-1.52l-.99-2.3c.02-.18.03-.36.03-.54c0-.7-.16-1.35-.48-1.93-.29-.52-.67-.94-1.16-1.27v0l-.02-.04h1.39l1.98,4.89l1.91-4.71.15.19.74.93.02-.01Z" fill="#7cbdff" stroke-width="0"/><polygon points="35.44,12.16 33.96,12.16 32.01,9.74 30.07,12.16 28.67,12.16 31.3,9.02 29.9,7.28 29.69,7.02 29.48,6.76 28.93,6.08 30.42,6.08 32.07,8.19 33.76,6.08 35.13,6.08 32.8,8.94 35.44,12.16" fill="#7cbdff" stroke-width="0"/><path d="M23.71,7.67c-.17-.31-.39-.58-.65-.81-.14-.13-.3-.24-.47-.34c0,0,0,0,0,0l-.5,1.04c.23.18.42.4.56.67.16.32.24.68.24,1.08s-.08.76-.24,1.08-.39.57-.69.75-.64.27-1.03.27c-.24,0-.45-.03-.65-.1l-.49,1.02c.35.12.73.18,1.14.18.62,0,1.17-.14,1.66-.42.48-.28.86-.66,1.13-1.14.18-.31.29-.65.36-1.01.03-.2.05-.41.05-.62v0c0-.61-.14-1.15-.41-1.64l-.01-.01Z" fill="#7cbdff" stroke-width="0"/><path d="M19.19,10.39c-.17-.32-.25-.68-.25-1.08s.08-.76.25-1.08.4-.57.69-.76c.3-.19.64-.28,1.04-.28.17,0,.33.02.48.05l.49-1.02c-.3-.09-.63-.13-.97-.13-.63,0-1.18.14-1.67.43-.01,0-.03.02-.04.03-.17.1-.32.22-.47.34-.25.23-.46.49-.64.79-.28.49-.42,1.04-.42,1.64v.02c0,.21.02.42.06.62.06.36.18.69.36.99.25.43.58.78.99,1.05l.51-1.06c-.17-.15-.32-.34-.43-.55h.02Z" fill="#fff" stroke-width="0"/></g><path d="" fill="none" stroke="#3e5974" stroke-miterlimit="10"/></g><g><g><path d="M10.61,18.46h.31c.42,0,.65-.22.65-.62v-1.85h1v1.86c0,.37.11.61.39.61h.09c.25,0,.34-.13.34-.53v-2.34h1.02v2.4c0,.32.05.47.39.47h.14c.13,0,.27.26.27.58s-.13.57-.27.57h-.08c-.36,0-.66-.08-.82-.32-.22.22-.53.32-.92.32h-.13c-.39,0-.82-.09-1.05-.5-.22.43-.66.5-.95.5h-.39v.16c0,1.16-.55,1.66-1.65,1.66h-.3c-1.25,0-1.67-.51-1.67-1.9v-3.01h1.02v2.93c0,.58.15.88.76.88h.18c.38,0,.55-.17.55-.54v-3.8h1.1v2.47h.02Z" fill="#fff" stroke-width="0"/><path d="M14.69,19.04c0-.32.13-.58.27-.58h1.65c.22,0,.34-.06.34-.18c0-.13-.08-.25-.16-.37l-1.44-2.13v-1.13l2.9-1.69v1.31l-1.82,1.08l1.88,2.7c.18.27.33.41.58.41h.08c.13,0,.27.26.27.58s-.13.57-.27.57h-.09c-.47,0-.74-.13-.98-.39-.24.23-.65.39-1.3.39h-1.64c-.14,0-.27-.26-.27-.57Z" fill="#fff" stroke-width="0"/><path d="M26.4,19.62c-.11,1.05-.63,1.4-1.6,1.76l-.95.35-.38-1.05.96-.33c.71-.25.91-.39.93-.73h-.66c-.81,0-1.34-.4-1.34-1.5v-1.92c0-1.09.62-1.63,1.5-1.63s1.55.54,1.55,1.63v2.26h.47c.13,0,.27.26.27.58s-.13.57-.27.57h-.48v.01Zm-1.09-1.16v-2.26c0-.39-.23-.56-.5-.56s-.52.18-.52.61v1.7c0,.38.2.51.53.51h.49Z" fill="#7cbdff" stroke-width="0"/><path d="M26.61,19.04c0-.32.13-.58.27-.58h.69c-.13-.22-.19-.49-.19-.82v-1.62c0-1.02.65-1.53,1.56-1.53s1.55.5,1.55,1.53v2.13c0,.11,0,.21,0,.3h.56c.13,0,.27.26.27.58s-.13.57-.27.57h-4.16c-.14,0-.27-.26-.27-.57l-.01.01Zm2.34-3.44c-.28,0-.53.17-.53.56v1.75c0,.39.26.56.55.56h.13c.24,0,.36-.12.36-.35v-1.96c0-.39-.23-.56-.51-.56Zm-.47-2.29c0-.34.25-.56.56-.56s.56.22.56.56-.25.55-.56.55-.56-.22-.56-.55Z" fill="#7cbdff" stroke-width="0"/><path d="M30.77,19.04c0-.32.13-.58.27-.58h.16c.27,0,.44-.13.44-.46v-2.86h1.03v2.9c0,1.08-.4,1.58-1.4,1.58h-.23c-.14,0-.27-.26-.27-.57v-.01Zm.09,1.73c0-.32.24-.53.53-.53.25,0,.47.14.52.39.06-.25.27-.4.52-.4.3,0,.54.21.54.53s-.24.53-.54.53c-.24,0-.46-.15-.51-.39-.06.24-.27.39-.53.39-.29,0-.53-.21-.53-.53v.01Z" fill="#7cbdff" stroke-width="0"/><path d="M33.4,21.58l.49-.11c-.02-.12-.03-.24-.03-.41v-.37c0-.53.27-.74.75-.74h.27v.56h-.23c-.21,0-.28.07-.28.31v.27c0,.1,0,.19.02.28l.63-.14v.56l-1.62.36v-.56-.01Zm.3-8.66h1.12v6.7h-1.12v-6.7Z" fill="#7cbdff" stroke-width="0"/></g><g><path d="M20.39,14.59l.5,1.03c0,0,.09-.02.14-.02.28,0,.51.17.51.56v.81l.95,1.96c.07-.21.09-.47.09-.77v-2.13c0-1.03-.64-1.53-1.55-1.53-.23,0-.45.03-.64.1v-.01Z" fill="#7cbdff" stroke-width="0"/><path d="M21.04,13.86c.3,0,.56-.22.56-.55s-.25-.56-.56-.56-.56.22-.56.56.25.55.56.55Z" fill="#7cbdff" stroke-width="0"/><path d="M21.41,18.42c-.06.03-.13.05-.22.05h-.13c-.29,0-.55-.17-.55-.56v-1.36l-.73-1.52c-.19.25-.3.58-.3.99v1.62c0,.32.06.59.19.82h-.69c-.14,0-.27.26-.27.58s.13.57.27.57h2.12c.36,0,.63-.04.84-.12l-.52-1.08-.01.01Z" fill="#fff" stroke-width="0"/></g></g></g><g><polygon points="39.45,1.46 39.45,19.64 36.58,19.64 36.58,4.33 22.95,4.33 24.34,1.46 39.45,1.46" fill="#fff" stroke-width="0"/><g><path d="M25.8,3.74c-.06,0-.12,0-.16-.02-.04-.01-.08-.04-.11-.07s-.05-.07-.06-.12-.02-.11-.02-.19v-.9c0-.08,0-.15.02-.2s.03-.1.06-.13.06-.05.11-.07c.04-.01.1-.02.16-.02.07,0,.12,0,.16.02s.08.04.1.07c.03.03.04.07.05.13.01.05.02.12.02.2v.21h-.16c0,0,0-.22,0-.22c0-.05,0-.09-.01-.12c0-.03-.02-.06-.03-.07-.01-.02-.03-.03-.05-.04-.02,0-.05-.01-.08-.01s-.06,0-.08.01c-.02,0-.04.02-.05.04s-.02.04-.03.07c0,.03-.01.07-.01.12v.91c0,0,0,.09.01.12c0,.03.02.06.03.07s.03.03.05.04c.02,0,.05.01.08.01s.06,0,.08-.01c.02,0,.04-.02.05-.04s.02-.04.03-.07.01-.07.01-.12v-.23h.16v.23c0,.06,0,.11-.01.16c0,.04-.02.08-.03.11-.02.03-.04.06-.06.07-.03.02-.06.03-.1.04-.04,0-.08.01-.13.01v.01Z" fill="#17273e" stroke-width="0"/><path d="M26.86,3.74c-.06,0-.11,0-.15-.02-.04-.01-.08-.03-.1-.06-.03-.03-.04-.07-.06-.12-.01-.05-.02-.11-.02-.17v-.66c0-.07,0-.13.02-.18.01-.05.03-.09.06-.12s.06-.05.1-.06.09-.02.15-.02.11,0,.15.02c.04.01.08.03.1.06.03.03.04.07.06.12.01.05.02.11.02.18v.66c0,.07,0,.13-.02.17-.01.05-.03.09-.06.12s-.06.05-.1.06-.09.02-.15.02Zm0-.15c0,0,.05,0,.07-.01.02,0,.04-.02.05-.04s.02-.04.03-.07c0-.03,0-.06,0-.1v-.66c0,0,0-.08,0-.11s-.02-.05-.03-.07-.03-.03-.05-.03-.05-.01-.07-.01c-.03,0-.05,0-.08.01-.02,0-.04.02-.05.03-.01.02-.02.04-.03.07c0,.03,0,.06,0,.11v.66c0,0,0,.08,0,.1c0,.03.02.05.03.07s.03.03.05.04c.02,0,.05.01.08.01Z" fill="#17273e" stroke-width="0"/><path d="M27.6,3.41v-.9c0,0,0-.1,0-.15h.13v.27c0,0,.01.04.01.04l.02.04v.91c0,0,0,.06,0,.09h-.17c0,0,0-.06,0-.1c0-.03,0-.06,0-.1v-.11l.01.01Zm.64-.27v.38c0,0,0,.07,0,.1s0,.07,0,.1h-.17c0,0,0-.06,0-.09v-.93c0,0,0-.07,0-.09c0-.03-.01-.05-.03-.06s-.03-.03-.05-.03-.04,0-.07,0-.05,0-.08,0c-.02,0-.04.02-.05.03s-.02.04-.03.07c0,.03,0,.06,0,.11h-.05c0-.06,0-.11.02-.16s.03-.09.05-.12.05-.06.08-.07c.03-.02.08-.02.13-.02.04,0,.08,0,.11.02.03.01.06.03.08.05s.04.06.05.1.02.09.02.15v.14c0,0,0,.1,0,.16s0,.12,0,.19l-.01-.03Z" fill="#17273e" stroke-width="0"/><path d="M28.93,3.74c-.06,0-.1,0-.14-.02s-.07-.03-.1-.06-.04-.07-.06-.11c-.01-.05-.02-.11-.02-.18v-.09h.15c0,0,0,.09,0,.09c0,.05,0,.08,0,.11s.02.05.03.07.03.03.05.03.05,0,.08,0s.05,0,.07-.01c.02,0,.03-.02.04-.04s.02-.04.02-.07s0-.06,0-.1s0-.07,0-.09-.01-.05-.03-.07c-.01-.02-.03-.04-.06-.06s-.06-.04-.1-.06c-.05-.03-.09-.05-.12-.08-.03-.02-.06-.05-.08-.08s-.03-.06-.04-.1c0-.04-.01-.08-.01-.13v-.02c0-.07,0-.12.02-.17.01-.05.03-.08.05-.11s.05-.05.09-.06.08-.02.13-.02.1,0,.13.02c.04.01.07.03.09.05.02.03.04.06.05.11s.02.1.02.17v.1h-.15c0,0,0-.1,0-.1c0-.04,0-.07,0-.1s-.01-.05-.02-.06-.02-.02-.04-.03c-.02,0-.04,0-.07,0-.02,0-.04,0-.06,0s-.03.02-.04.03-.02.04-.02.06c0,.03,0,.06,0,.1c0,.03,0,.06,0,.08s.01.04.03.06c.01.02.03.04.05.05.02.02.05.04.09.06.06.03.1.06.14.09s.06.06.08.09.03.07.04.1c0,.04.01.08.01.13v.02c0,.07,0,.13-.02.18-.01.05-.03.08-.05.11s-.06.05-.1.06-.09.02-.14.02l.01.03Z" fill="#17273e" stroke-width="0"/><path d="M29.62,2.94v-.43c0,0,0-.1,0-.15h.17c0,0,0,.06,0,.09v.93c0,0,0,.07,0,.1c0,.02.01.05.03.06.01.02.03.03.05.03s.04,0,.07,0s.05,0,.07-.01c.02,0,.04-.02.05-.03.01-.02.02-.04.03-.07c0-.03,0-.06,0-.11h.05c0,.06,0,.11-.02.16s-.03.09-.05.12-.05.05-.08.07-.07.02-.12.02c-.04,0-.08,0-.11-.02-.03-.01-.06-.03-.08-.05s-.04-.06-.05-.1-.02-.09-.02-.15v-.11c0,0,0-.07,0-.11s0-.08,0-.12v-.15l.01.03Zm.63-.27v.9c0,0,0,.1,0,.15h-.13v-.27c0,0-.01-.04-.01-.04l-.02-.03v-.91c0,0,0-.06,0-.09h.17c0,0,0,.07,0,.1s0,.06,0,.1v.11l-.01-.02Z" fill="#17273e" stroke-width="0"/><path d="M30.69,3.41v-1.3c0,0,0-.09,0-.14h.17c0,0,0,.09,0,.14v1.47c0,0,0,.09,0,.14h-.17c0,0,0-.1,0-.14v-.16-.01Z" fill="#17273e" stroke-width="0"/><path d="M31.38,2.51h-.18v-.15h.47v.15h-.29Zm-.06.3v-.57c0,0,0-.09,0-.14h.17c0,0,0,.08,0,.12v1.18c0,0,0,.07.01.09s.03.04.05.05c.02,0,.06.01.1.01h.02c0,0,.01,0,.02,0v.15c0,0-.01,0-.02,0h-.02c-.07,0-.12,0-.16-.01s-.07-.02-.1-.05c-.02-.02-.04-.05-.05-.09c0-.04-.01-.09-.01-.15v-.12c0,0,0-.1,0-.15c0-.06,0-.11,0-.17v-.17l-.01.02Z" fill="#17273e" stroke-width="0"/><path d="M32.25,3.74c0,0-.08,0-.12-.02-.03-.01-.06-.03-.08-.06s-.04-.06-.04-.11-.01-.1-.01-.17v-.16c0-.07,0-.12.01-.17c0-.05.02-.08.04-.11s.05-.04.08-.06c.03-.01.07-.02.12-.02s.08,0,.12.02c.03.02.06.04.08.07s.04.07.05.11.02.09.02.14h-.05c0,0,0-.07,0-.09s-.02-.04-.03-.06c-.01-.01-.03-.03-.05-.03s-.04,0-.07,0-.05,0-.07,0-.03.02-.05.03c-.01.01-.02.03-.03.06c0,.02,0,.06,0,.1v.16c0,.05,0,.09.02.12.01.03.03.05.05.06s.05.02.09.02c.02,0,.05,0,.07-.01.02,0,.04-.02.05-.03.01-.02.02-.04.03-.06c0-.03,0-.06,0-.1h.05c0,.06,0,.11-.02.15-.01.04-.03.08-.05.11s-.05.05-.08.07-.07.02-.12.02l-.01.02Zm.37-.47v.21c0,.07,0,.15,0,.24h-.13v-.25c0,0,0-.05,0-.05l-.02-.03v-.16l.02-.03-.03-.12v-.39c0,0,0-.07,0-.1c0-.02-.01-.04-.03-.06-.01-.01-.03-.02-.04-.03-.02,0-.04,0-.06,0-.03,0-.05,0-.07,0s-.03.02-.04.03-.02.03-.03.06c0,.02,0,.06,0,.1v.06h-.15v-.07c0-.07,0-.12.02-.16.01-.04.03-.08.05-.11s.05-.05.09-.06.09-.02.14-.02c.06,0,.11,0,.15.02.04.01.07.03.09.06s.04.06.05.1.02.1.02.16c0,.05,0,.09,0,.14s0,.1,0,.15v.31h-.03Z" fill="#17273e" stroke-width="0"/><path d="M33.05,3.41v-.9c0,0,0-.1,0-.15h.13v.27c0,0,.01.04.01.04l.02.04v.91c0,0,0,.06,0,.09h-.17c0,0,0-.06,0-.1c0-.03,0-.06,0-.1v-.11l.01.01Zm.63-.27v.38c0,0,0,.07,0,.1s0,.07,0,.1h-.17c0,0,0-.06,0-.09v-.93c0,0,0-.07,0-.09c0-.03-.01-.05-.03-.06s-.03-.03-.05-.03-.04,0-.07,0-.05,0-.08,0c-.02,0-.04.02-.05.03s-.02.04-.03.07c0,.03,0,.06,0,.11h-.05c0-.06,0-.11.02-.16s.03-.09.05-.12.05-.06.08-.07c.03-.02.08-.02.13-.02.04,0,.08,0,.11.02.03.01.06.03.08.05s.04.06.05.1.02.09.02.15v.14c0,0,0,.1,0,.16s0,.12,0,.19l-.01-.03Z" fill="#17273e" stroke-width="0"/><path d="M34.42,3.74c-.06,0-.11,0-.15-.02-.04-.01-.07-.03-.1-.06s-.04-.07-.06-.12c-.01-.05-.02-.11-.02-.17v-.66c0-.07,0-.13.02-.18.01-.05.03-.09.06-.12s.06-.05.1-.06.09-.02.15-.02.11,0,.15.02c.04.01.07.03.1.06.02.03.04.07.05.12s.02.11.02.18v.18h-.16c0,0,0-.18,0-.18c0-.04,0-.08,0-.11s-.01-.05-.03-.07c-.01-.02-.03-.03-.05-.03s-.04-.01-.07-.01-.05,0-.07.01c-.02,0-.04.02-.05.03-.01.02-.02.04-.03.07c0,.03,0,.06,0,.11v.66c0,0,0,.08,0,.1c0,.03.01.05.03.07.01.02.03.03.05.04.02,0,.05.01.07.01s.05,0,.07-.01c.02,0,.04-.02.05-.04s.02-.04.03-.07c0-.03,0-.06,0-.1v-.18h.16v.18c0,.07,0,.13-.02.17-.01.05-.03.09-.05.12s-.06.05-.1.06-.09.02-.15.02Z" fill="#17273e" stroke-width="0"/><path d="M35.52,3.78c-.01.06-.02.1-.04.14-.01.03-.03.06-.05.08s-.05.03-.08.04-.07.01-.11.01c-.01,0-.03,0-.04,0s-.02,0-.04,0c-.01,0-.02,0-.03,0v-.15c0,0,.03,0,.04,0s.02,0,.03,0h.04c0,0,.05,0,.07-.01s.03-.02.04-.05c.01-.02.02-.05.03-.09l.02-.13.05.03h-.16c-.01-.06-.02-.13-.04-.22-.02-.08-.03-.17-.05-.27-.02-.09-.04-.19-.06-.28-.02-.1-.04-.19-.05-.28-.02-.09-.03-.17-.05-.24h.19l.1.62c.02.1.03.21.05.31s.03.2.05.29l-.04-.09h.07l-.04.09c.01-.09.03-.18.05-.29.02-.1.04-.21.05-.32l.1-.61h.17c-.01.07-.03.15-.05.24s-.04.19-.06.29-.04.21-.06.31c-.02.11-.04.21-.06.3-.02.1-.04.18-.05.26l.01.02Z" fill="#17273e" stroke-width="0"/></g><g><path d="M37.31,2.73c0-.06,0-.11.02-.15.01-.04.03-.07.05-.09s.06-.04.1-.05.1-.01.16-.01h.2c.06,0,.1,0,.14.01.04,0,.07.02.1.03s.05.03.07.06c.02.02.03.05.04.08l.03.04v.03c0,0,.02.06.03.08s.02.03.04.04c.01,0,.03.02.05.02s.05,0,.08,0h.17c0,0,.05,0,.07,0s.03,0,.04-.01c.01,0,.02-.02.03-.03c0-.01,0-.03,0-.05s0-.03,0-.05c0-.01-.01-.02-.03-.03-.01,0-.03-.01-.04-.01-.02,0-.04,0-.07,0h-.16c0,0-.06,0-.09,0s-.05,0-.07.02c-.02,0-.05.02-.08.04l-.06.03c0,0-.08.04-.13.07s-.1.06-.16.09-.12.07-.18.1-.12.07-.18.1-.11.06-.16.09v0-.15l.71-.4.03-.03c0,0,.09-.05.13-.07s.07-.03.11-.04.06-.01.1-.01h.19c.05,0,.09,0,.13.01.04,0,.06.02.09.04.02.02.04.04.05.08.01.03.02.07.02.12s0,.09-.02.12c-.01.03-.03.06-.05.08s-.05.03-.09.04c-.04,0-.08.01-.13.01h-.17c-.05,0-.1,0-.13-.01-.04,0-.06-.02-.09-.04-.02-.02-.04-.05-.06-.08s-.03-.07-.04-.11v0c0,0-.02-.03-.02-.03c0-.02-.01-.03-.02-.04s-.03-.02-.04-.03c-.02,0-.04-.01-.08-.02s-.07,0-.12,0h-.18c0,0-.07,0-.1,0-.02,0-.04.01-.06.02-.01.01-.03.03-.03.04c0,.02,0,.04,0,.07c0,.04,0,.07.01.09c0,.02.02.04.05.05.02,0,.06.02.1.02l.06.04c0,0,.01,0,.02,0c0,0,.01,0,.02,0c.06,0,.11,0,.17,0s.11,0,.14,0v.13c0,0-.08,0-.14,0s-.12,0-.18,0c-.03,0-.07,0-.09,0-.03,0-.05,0-.08,0l-.09-.07c0,0-.04-.02-.06-.03s-.03-.03-.04-.04c-.01-.02-.02-.04-.02-.07s0-.06,0-.1l-.01-.04Z" fill="#17273e" stroke-width="0"/><path d="M37.31,4.36c0,0,0-.08.02-.11.01-.03.04-.06.06-.08.03-.02.06-.03.11-.04.04,0,.09-.01.15-.01v.05c0,0-.07,0-.1,0s-.05.01-.06.02-.03.03-.03.05-.01.04-.01.07s0,.05.01.07c0,.02.02.03.03.05.02.01.04.02.06.03.03,0,.06,0,.1,0h.6c0,0,.07,0,.1,0s.05-.02.06-.03.03-.03.03-.05s0-.04,0-.07s0-.05,0-.07-.02-.03-.03-.05c-.01-.01-.04-.02-.06-.03-.03,0-.06,0-.1,0v-.05c.05,0,.1,0,.14.01.04,0,.08.02.11.04s.05.05.07.08.02.07.02.11s0,.08-.02.11c-.01.03-.03.06-.06.08s-.06.04-.1.05-.1.02-.16.02h-.6c-.07,0-.12,0-.16-.02-.04-.01-.08-.03-.1-.05s-.04-.05-.06-.08c-.01-.03-.02-.07-.02-.11v.01Zm.31-.35h1.2c0,0,.08,0,.12,0v.15c0,0-.06,0-.1,0s-.09,0-.14,0-.11,0-.17,0-.12,0-.18,0h-.06c0,0-.03,0-.03,0h-.6v-.03c0,0-.07,0-.07,0h-.25v-.12c0,0,.08,0,.13,0h.15Z" fill="#17273e" stroke-width="0"/><path d="M38.05,4.99h.39c0,0,.09,0,.14,0v.15c0,0-.06,0-.08,0h-.86c0,0-.06,0-.09,0-.02,0-.04.01-.06.02s-.02.03-.03.04s0,.04,0,.06c0,.03,0,.05,0,.07s.02.03.03.05c.01.01.04.02.06.03s.06,0,.1,0v.05c-.06,0-.1,0-.15-.02-.04,0-.08-.02-.11-.04s-.05-.05-.07-.08-.02-.07-.02-.11s0-.07.01-.1.03-.05.05-.07.05-.03.09-.04.08-.01.13-.01h.1c0,0,.07,0,.1,0c.04,0,.07,0,.11,0h.13.03Zm.25.58h-.82c0,0-.09,0-.14,0v-.12h.25c0,0,.04-.01.04-.01l.03-.02h.84c0,0,.06,0,.09,0v.15c0,0-.06,0-.09,0s-.06,0-.09,0h-.1-.01Z" fill="#17273e" stroke-width="0"/><path d="M37.31,6.21c0-.05,0-.1.02-.13s.03-.07.05-.09.06-.04.1-.05.1-.02.17-.02h.09v.14c0,0-.09,0-.09,0-.04,0-.08,0-.1,0-.03,0-.05.01-.06.03-.01.01-.03.03-.03.05s0,.04,0,.07s0,.05.01.06c0,.02.02.03.03.04.01,0,.04.02.06.02.03,0,.06,0,.1,0c.03,0,.06,0,.09,0c.02,0,.04-.01.06-.03.02-.01.04-.03.05-.05s.04-.06.06-.1.05-.08.07-.11.05-.05.07-.07c.03-.02.06-.03.09-.04.03,0,.07-.01.12-.01h.02c.06,0,.11,0,.15.02.04.01.07.03.1.05.02.02.04.05.05.08s.02.07.02.12s0,.09-.01.12c0,.03-.03.06-.05.08s-.06.04-.1.04-.09.01-.16.01h-.09v-.14c0,0,.09,0,.09,0c.04,0,.07,0,.09,0s.04-.01.06-.02c.01,0,.02-.02.03-.04c0-.02,0-.04,0-.06s0-.04,0-.05-.01-.03-.03-.04c-.01,0-.03-.02-.06-.02-.02,0-.06,0-.09,0s-.06,0-.08,0-.04.01-.06.02-.03.03-.05.05-.03.05-.05.08c-.03.05-.05.09-.08.13-.03.03-.05.06-.08.08s-.06.03-.1.04c-.03,0-.08,0-.12,0h-.02c-.07,0-.12,0-.16-.01s-.08-.03-.1-.05c-.03-.02-.04-.05-.05-.09s-.02-.08-.02-.13l-.01.02Z" fill="#17273e" stroke-width="0"/><path d="M37.62,6.85h.83c0,0,.08,0,.13,0v.15c0,0-.08,0-.13,0h-.98c0,0-.09,0-.13,0v-.15c0,0,.09,0,.13,0h.15Zm1.28,0v.16h-.18v-.16h.18Z" fill="#17273e" stroke-width="0"/><path d="M37.62,7.41h.83c0,0,.09,0,.14,0v.12h-.25c0,0-.03.01-.03.01l-.03.02h-.84c0,0-.06,0-.08,0v-.15c0,0,.06,0,.09,0s.06,0,.09,0h.1-.02Zm.25.58h-.35c0,0-.06,0-.09,0s-.06,0-.09,0v-.15c0,0,.06,0,.08,0h.86c0,0,.06,0,.09,0c.02,0,.04-.01.06-.02.01-.01.02-.03.03-.04c0-.02,0-.04,0-.06c0-.03,0-.05,0-.07s-.02-.04-.03-.05-.04-.02-.06-.03c-.03,0-.06,0-.1,0v-.05c.06,0,.1,0,.15.01.04,0,.08.02.11.04s.05.05.07.08c.01.03.02.12.02.12s0,.07-.02.1c-.01.03-.03.05-.05.07s-.05.03-.09.04c-.04,0-.08.01-.13.01h-.13c0,0-.09,0-.14,0s-.11,0-.17,0h-.02Z" transform="translate(0 0.02)" fill="#17273e" stroke-width="0"/><path d="M37.31,8.67c0-.05,0-.1.02-.14.01-.04.03-.07.06-.09s.06-.04.11-.05c.04-.01.1-.02.16-.02h.6c.06,0,.12,0,.16.02.04.01.08.03.11.05s.05.05.06.09.02.08.02.14s0,.1-.02.14c-.01.04-.03.07-.06.09s-.06.04-.11.05c-.04.01-.1.02-.16.02h-.26c0,0-.06,0-.09,0v-.49h.14v.45l-.03-.11h.25c0,0,.08,0,.1,0s.05-.01.06-.02.03-.03.03-.04c0-.02,0-.04,0-.07s0-.05,0-.07-.02-.03-.03-.05c-.01-.01-.04-.02-.06-.03-.03,0-.06,0-.1,0h-.6c0,0-.07,0-.1,0s-.05.01-.06.03c-.02.01-.03.03-.03.05s0,.04,0,.07s0,.05,0,.07.02.04.03.05c.02.01.04.02.06.03.03,0,.06,0,.1,0h.1v.14h-.1c-.06,0-.12,0-.16-.02-.04-.01-.08-.03-.11-.05s-.05-.05-.06-.09-.02-.08-.02-.14l-.01-.01Z" transform="translate(0 0.02)" fill="#17273e" stroke-width="0"/><path d="M37.31,9.58c0-.05,0-.1.02-.13s.03-.07.05-.09.06-.04.1-.05.1-.02.17-.02h.09v.14c0,0-.09,0-.09,0-.04,0-.08,0-.1,0-.03,0-.05.01-.06.03-.01.01-.03.03-.03.05s0,.04,0,.07s0,.05.01.06c0,.02.02.03.03.04.01,0,.04.02.06.02.03,0,.06,0,.1,0c.03,0,.06,0,.09,0c.02,0,.04-.01.06-.03.02-.01.04-.03.05-.05s.04-.06.06-.1.05-.08.07-.11.05-.05.07-.07c.03-.02.06-.03.09-.04.03,0,.07-.01.12-.01h.02c.06,0,.11,0,.15.02.04.01.07.03.1.05.02.02.04.05.05.08s.02.07.02.12s0,.09-.01.12c0,.03-.03.06-.05.08s-.06.04-.1.04-.09.01-.16.01h-.09v-.14c0,0,.09,0,.09,0c.04,0,.07,0,.09,0s.04-.01.06-.02c.01,0,.02-.02.03-.04c0-.02,0-.04,0-.06s0-.04,0-.05-.01-.03-.03-.04c-.01,0-.03-.02-.06-.02-.02,0-.06,0-.09,0s-.06,0-.08,0-.04.01-.06.02-.03.03-.05.05-.03.05-.05.08c-.03.05-.05.09-.08.13-.03.03-.05.06-.08.08s-.06.03-.1.04c-.03,0-.08,0-.12,0h-.02c-.07,0-.12,0-.16-.01s-.08-.03-.1-.05c-.03-.02-.04-.05-.05-.09s-.02-.08-.02-.13l-.01.02Z" fill="#17273e" stroke-width="0"/><path d="M37.31,10.46c0-.05,0-.1.02-.13s.03-.07.05-.09.06-.04.1-.05.1-.02.17-.02h.09v.14c0,0-.09,0-.09,0-.04,0-.08,0-.1,0-.03,0-.05.01-.06.03-.01.01-.03.03-.03.05s0,.04,0,.07s0,.05.01.06c0,.02.02.03.03.04.01,0,.04.02.06.02.03,0,.06,0,.1,0c.03,0,.06,0,.09,0c.02,0,.04-.01.06-.03.02-.01.04-.03.05-.05s.04-.06.06-.1.05-.08.07-.11.05-.05.07-.07c.03-.02.06-.03.09-.04.03,0,.07-.01.12-.01h.02c.06,0,.11,0,.15.02.04.01.07.03.1.05.02.02.04.05.05.08s.02.07.02.12s0,.09-.01.12c0,.03-.03.06-.05.08s-.06.04-.1.04-.09.01-.16.01h-.09v-.14c0,0,.09,0,.09,0c.04,0,.07,0,.09,0s.04-.01.06-.02c.01,0,.02-.02.03-.04c0-.02,0-.04,0-.06s0-.04,0-.05-.01-.03-.03-.04c-.01,0-.03-.02-.06-.02-.02,0-.06,0-.09,0s-.06,0-.08,0-.04.01-.06.02-.03.03-.05.05-.03.05-.05.08c-.03.05-.05.09-.08.13-.03.03-.05.06-.08.08s-.06.03-.1.04c-.03,0-.08,0-.12,0h-.02c-.07,0-.12,0-.16-.01s-.08-.03-.1-.05c-.03-.02-.04-.05-.05-.09s-.02-.08-.02-.13l-.01.02Z" fill="#17273e" stroke-width="0"/><path d="M37.31,11.87c0-.05,0-.1.02-.13s.03-.07.05-.09.06-.04.1-.05.1-.02.17-.02h.09v.14c0,0-.09,0-.09,0-.04,0-.08,0-.1,0-.03,0-.05.01-.06.03-.01.01-.03.03-.03.05s0,.04,0,.07s0,.05.01.06c0,.02.02.03.03.04.01,0,.04.02.06.02.03,0,.06,0,.1,0c.03,0,.06,0,.09,0c.02,0,.04-.01.06-.03.02-.01.04-.03.05-.05s.04-.06.06-.1.05-.08.07-.11.05-.05.07-.07c.03-.02.06-.03.09-.04.03,0,.07-.01.12-.01h.02c.06,0,.11,0,.15.02.04.01.07.03.1.05.02.02.04.05.05.08s.02.07.02.12s0,.09-.01.12c0,.03-.03.06-.05.08s-.06.04-.1.04-.09.01-.16.01h-.09v-.14c0,0,.09,0,.09,0c.04,0,.07,0,.09,0s.04-.01.06-.02c.01,0,.02-.02.03-.04c0-.02,0-.04,0-.06s0-.04,0-.05-.01-.03-.03-.04c-.01,0-.03-.02-.06-.02-.02,0-.06,0-.09,0s-.06,0-.08,0-.04.01-.06.02-.03.03-.05.05-.03.05-.05.08c-.03.05-.05.09-.08.13-.03.03-.05.06-.08.08s-.06.03-.1.04c-.03,0-.08,0-.12,0h-.02c-.07,0-.12,0-.16-.01s-.08-.03-.1-.05c-.03-.02-.04-.05-.05-.09s-.02-.08-.02-.13l-.01.02Z" fill="#17273e" stroke-width="0"/><path d="M37.31,12.79c0-.05,0-.1.02-.14.01-.04.03-.07.06-.09s.06-.04.11-.05c.04-.01.1-.02.16-.02h.6c.06,0,.12,0,.16.02.04.01.08.03.11.05s.05.05.06.09.02.08.02.14s0,.1-.02.14c-.01.04-.03.07-.06.09s-.06.04-.11.05c-.04.01-.1.02-.16.02h-.6c-.06,0-.12,0-.16-.02-.04-.01-.08-.03-.11-.05s-.05-.05-.06-.09-.02-.09-.02-.14Zm.15.01c0,0,0,.05,0,.07s.02.03.03.05c.02.01.04.02.06.03s.06,0,.1,0h.6c0,0,.07,0,.1,0s.05-.01.06-.03c.01-.01.03-.03.03-.05s0-.04,0-.07s0-.05,0-.07-.02-.03-.03-.05-.04-.02-.06-.03c-.03,0-.06,0-.1,0h-.6c0,0-.07,0-.1,0s-.05.01-.06.03c-.02.01-.03.03-.03.05s0,.04,0,.07Z" fill="#17273e" stroke-width="0"/><path d="M37.62,13.48h1.2c0,0,.09,0,.13,0v.15c0,0-.08,0-.13,0h-1.35c0,0-.09,0-.13,0v-.15c0,0,.09,0,.13,0h.15Z" fill="#17273e" stroke-width="0"/><path d="M38.05,14.03h.39c0,0,.09,0,.14,0v.15c0,0-.06,0-.08,0h-.86c0,0-.06,0-.09,0-.02,0-.04.01-.06.02s-.02.03-.03.04s0,.04,0,.06c0,.03,0,.05,0,.07s.02.03.03.05c.01.01.04.02.06.03s.06,0,.1,0v.05c-.06,0-.1,0-.15-.02-.04,0-.08-.02-.11-.04s-.05-.05-.07-.08-.02-.07-.02-.11s0-.07.01-.1.03-.05.05-.07.05-.03.09-.04.08-.01.13-.01h.1c0,0,.07,0,.1,0c.04,0,.07,0,.11,0h.13.03Zm.25.58h-.82c0,0-.09,0-.14,0v-.12h.25c0,0,.04-.01.04-.01l.03-.02h.84c0,0,.06,0,.09,0v.15c0,0-.06,0-.09,0s-.06,0-.09,0h-.1-.01Z" fill="#17273e" stroke-width="0"/><path d="M38.17,15.03h.52c0,0,.08,0,.12,0v.15c0,0-.07,0-.11,0h-1.09c0,0-.07,0-.09.01-.02,0-.03.02-.04.04s-.01.05-.01.09v.02c0,0,0,.01,0,.02h-.14c0,0,0,0,0-.02v-.02c0-.06,0-.11.01-.15c0-.04.02-.07.04-.09s.05-.04.09-.04.08-.01.14-.01h.11c0,0,.09,0,.14,0s.1,0,.16,0h.15Zm.27.06v-.17h.14v.43h-.14v-.27.01Z" fill="#17273e" stroke-width="0"/><path d="M37.62,15.7h.83c0,0,.08,0,.13,0v.15c0,0-.08,0-.13,0h-.98c0,0-.09,0-.13,0v-.15c0,0,.09,0,.13,0h.15Zm1.28,0v.16h-.18v-.16h.18Z" fill="#17273e" stroke-width="0"/><path d="M37.31,16.54c0-.05,0-.1.02-.14.01-.04.03-.07.06-.09s.06-.04.11-.05c.04-.01.1-.02.16-.02h.6c.06,0,.12,0,.16.02.04.01.08.03.11.05s.05.05.06.09.02.08.02.14s0,.1-.02.14c-.01.04-.03.07-.06.09s-.06.04-.11.05c-.04.01-.1.02-.16.02h-.6c-.06,0-.12,0-.16-.02-.04-.01-.08-.03-.11-.05s-.05-.05-.06-.09-.02-.09-.02-.14Zm.15,0c0,0,0,.05,0,.07s.02.03.03.05c.02.01.04.02.06.03s.06,0,.1,0h.6c0,0,.07,0,.1,0s.05-.01.06-.03c.01-.01.03-.03.03-.05s0-.04,0-.07s0-.05,0-.07-.02-.03-.03-.05-.04-.02-.06-.03c-.03,0-.06,0-.1,0h-.6c0,0-.07,0-.1,0s-.05.01-.06.03c-.02.01-.03.03-.03.05s0,.04,0,.07Z" fill="#17273e" stroke-width="0"/><path d="M37.62,17.22h.83c0,0,.09,0,.14,0v.12h-.25c0,0-.03.01-.03.01l-.03.02h-.84c0,0-.06,0-.08,0v-.15c0,0,.06,0,.09,0s.06,0,.09,0h.1-.02Zm.25.58h-.35c0,0-.06,0-.09,0s-.06,0-.09,0v-.15c0,0,.06,0,.08,0h.86c0,0,.06,0,.09,0c.02,0,.04-.01.06-.02.01-.01.02-.03.03-.04c0-.02,0-.04,0-.06c0-.03,0-.05,0-.07s-.02-.04-.03-.05-.04-.02-.06-.03c-.03,0-.06,0-.1,0v-.05c.06,0,.1,0,.15.01.04,0,.08.02.11.04s.05.05.07.08c.01.03.02.07.02.12c0,.04,0,.07-.02.1-.01.03-.03.05-.05.07s-.05.03-.09.04c-.04,0-.08.01-.13.01h-.13c0,0-.09,0-.14,0s-.11,0-.17,0h-.02Z" fill="#17273e" stroke-width="0"/><path d="M37.31,18.44c0-.05,0-.1.02-.13s.03-.07.05-.09.06-.04.1-.05.1-.02.17-.02h.09v.14c0,0-.09,0-.09,0-.04,0-.08,0-.1,0-.03,0-.05.01-.06.03-.01.01-.03.03-.03.05s0,.04,0,.07s0,.05.01.06c0,.02.02.03.03.04.01,0,.04.02.06.02.03,0,.06,0,.1,0c.03,0,.06,0,.09,0c.02,0,.04-.01.06-.03.02-.01.04-.03.05-.05s.04-.06.06-.1.05-.08.07-.11.05-.05.07-.07c.03-.02.06-.03.09-.04.03,0,.07-.01.12-.01h.02c.06,0,.11,0,.15.02.04.01.07.03.1.05.02.02.04.05.05.08s.02.07.02.12s0,.09-.01.12c0,.03-.03.06-.05.08s-.06.04-.1.04-.09.01-.16.01h-.09v-.14c0,0,.09,0,.09,0c.04,0,.07,0,.09,0s.04-.01.06-.02c.01,0,.02-.02.03-.04c0-.02,0-.04,0-.06s0-.04,0-.05-.01-.03-.03-.04c-.01,0-.03-.02-.06-.02-.02,0-.06,0-.09,0s-.06,0-.08,0-.04.01-.06.02-.03.03-.05.05-.03.05-.05.08c-.03.05-.05.09-.08.13-.03.03-.05.06-.08.08s-.06.03-.1.04c-.03,0-.08,0-.12,0h-.02c-.07,0-.12,0-.16-.01s-.08-.03-.1-.05c-.03-.02-.04-.05-.05-.09s-.02-.08-.02-.13l-.01.02Z" fill="#17273e" stroke-width="0"/></g></g><g><polygon points="2.6,25.61 2.6,7.43 5.47,7.43 5.47,22.74 19.11,22.74 17.72,25.61 2.6,25.61" fill="#fff" stroke-width="0"/><g><path d="M5.45,24.36v-.49h.24v.48c0,.22.13.29.41.29h.42c.11,0,.15-.03.15-.08v-.68h.25v.68c0,.15-.07.23-.4.23h-.42c-.46,0-.65-.12-.65-.43Zm.45-.73c0-.05.07-.09.15-.09s.16.03.16.09-.07.09-.16.09-.15-.04-.15-.09Zm.35,0c0-.05.07-.09.15-.09s.16.03.16.09-.07.09-.16.09-.15-.04-.15-.09Z" fill="#3e5974" stroke-width="0"/><path d="M7.41,23.35h.26v1.44h-.26v-1.44Z" fill="#3e5974" stroke-width="0"/><path d="M8.18,23.98h.24v.71c0,.3-.17.39-.48.48l-.26.08-.1-.15.27-.07c.26-.07.33-.13.33-.34v-.7-.01Z" fill="#3e5974" stroke-width="0"/><path d="M8.89,23.35h.25v1.09c0,.15.1.2.3.2h.03c0,0,.09.03.09.08s-.04.08-.09.08h-.05c-.38,0-.53-.1-.53-.36v-1.08-.01Z" fill="#3e5974" stroke-width="0"/><path d="M9.37,24.71c0,0,.04-.08.09-.08h.03c.22,0,.3-.06.3-.14v-.43h.23v.43c0,.09.06.14.23.14s.25-.05.25-.15v-.42h.23v.43c0,.09.06.15.21.15.12,0,.2-.04.2-.14v-.52h.23v.5c0,.11.03.16.22.16h.02c0,0,.09.03.09.08s-.04.08-.09.08h-.03c-.14,0-.26-.02-.33-.09-.07.06-.18.09-.32.09s-.28-.02-.35-.11c-.07.08-.2.11-.37.11-.16,0-.28-.03-.34-.1-.07.08-.23.1-.39.1h-.03c-.05,0-.09-.03-.09-.08l.01-.01Zm.95-.95c0-.05.06-.08.14-.08s.15.03.15.08-.07.08-.15.08-.14-.03-.14-.08Zm.16-.22c0-.05.06-.08.14-.08s.15.03.15.08-.07.08-.15.08-.14-.03-.14-.08Zm.17.21c0-.05.06-.08.14-.08s.14.03.14.08-.06.08-.14.08-.14-.03-.14-.08Z" fill="#3e5974" stroke-width="0"/><path d="M11.52,24.71c0,0,.04-.08.09-.08h.05c.16,0,.25-.04.25-.13v-.52h.24v.51c0,.09.05.15.23.15h.04c0,0,.09.03.09.08s-.04.08-.09.08h-.05c-.15,0-.28-.03-.34-.11-.07.09-.22.11-.38.11h-.04c-.05,0-.09-.03-.09-.08v-.01Zm.05-1c0-.05.07-.09.15-.09s.16.03.16.09-.07.09-.16.09-.15-.04-.15-.09Zm.35-.01c0-.05.07-.09.15-.09s.16.03.16.09-.07.09-.16.09-.15-.04-.15-.09Z" fill="#3e5974" stroke-width="0"/><path d="M12.33,24.71c0,0,.04-.08.09-.08h.03c.22,0,.3-.06.3-.14v-.43h.23v.43c0,.09.06.14.23.14s.25-.05.25-.15v-.42h.23v.43c0,.09.05.15.2.15s.21-.04.21-.11v-.55h.24v.55c0,.19-.15.26-.46.26-.13,0-.27-.02-.34-.12-.06.08-.2.12-.37.12-.16,0-.28-.03-.34-.1-.07.08-.23.1-.39.1h-.03c-.05,0-.09-.03-.09-.08h.01Z" fill="#3e5974" stroke-width="0"/><path d="M14.66,25.26l.18-.02c0,0-.02-.06-.02-.12v-.06c0-.11.09-.16.27-.16h.1v.09h-.09c-.09,0-.13.02-.13.09v.04c0,0,0,.06.02.09l.26-.03v.09l-.59.07v-.09.01Zm.02-.62h.23v-1.29h.24v1.29h.18c.26,0,.36-.06.36-.18v-1.11h.24v1.12c0,.11.04.17.24.17h.05c0,0,.09.03.09.08s-.04.08-.09.08h-.03c-.17,0-.31-.03-.36-.11-.09.07-.25.11-.48.11h-.65v-.15l-.02-.01Z" fill="#3e5974" stroke-width="0"/><path d="M16.12,24.71c0,0,.04-.08.09-.08h.06c.16,0,.24-.04.24-.15v-1.13h.24v1.13c0,.21-.13.31-.47.31h-.07c-.05,0-.09-.03-.09-.08Z" fill="#3e5974" stroke-width="0"/></g><g><path d="M3.43,10.33c-.17,0-.25-.18-.25-.54v-.18c0-.5.09-.66.34-.66h.53v.27h-.52c-.17,0-.23.08-.23.42v.14c0,.17.04.27.12.27h1.35v.27h-1.34v.01Z" fill="#3e5974" stroke-width="0"/><path d="M4.77,10.83v.27h-.95c-.13,0-.17.11-.17.32v.04c0,.05-.03.1-.07.1s-.07-.05-.07-.1v-.05c0-.41.09-.57.31-.57h.94l.01-.01Z" fill="#3e5974" stroke-width="0"/><path d="M3.58,11.35c0,0,.07.04.07.1v.03c0,.16.04.24.12.25l.37.04c.17.02.26.23.26.55c0,.3-.09.51-.26.51h-.34c-.1,0-.14.03-.14.21v.04c0,.05-.03.1-.07.1s-.07-.05-.07-.1v-.03c0-.14.02-.27.07-.33-.05-.09-.08-.23-.08-.4v-.09c0-.21.03-.34.09-.41-.07-.09-.08-.24-.08-.37v-.02c0-.05.03-.1.07-.1l-.01.02Zm.55,1.23c.1,0,.14-.12.14-.26c0-.16-.04-.27-.14-.28L3.78,12c-.1-.01-.13.07-.13.25v.08c0,.16.04.26.13.26h.36l-.01-.01Z" fill="#3e5974" stroke-width="0"/><path d="M3.58,13c0,0,.07.04.07.1v.36c.09-.08.15-.12.29-.12h.19c.19,0,.26.21.26.6v.24h-.13v-.22c0-.27-.04-.36-.15-.36h-.18c-.11,0-.18.04-.28.14v.59h-.13v-1.23c0-.05.03-.1.07-.1h-.01Z" fill="#3e5974" stroke-width="0"/><path d="M3.65,14.61v.24h1.12v.26h-1.12v.19c0,.28.05.39.15.39h.97v.26h-.95c-.21,0-.3-.18-.3-.63v-.71h.13Zm1.26.05l.02.2c0,0,.06-.03.1-.03h.06c.1,0,.14.1.14.29v.11h-.08v-.09c0-.1-.02-.14-.08-.14h-.04c0,0-.06,0-.08.02l.03.28h-.08l-.06-.64h.08-.01Z" fill="#3e5974" stroke-width="0"/><path d="M4.77,16.48v.28h-1.25v-.28h1.25Z" fill="#3e5974" stroke-width="0"/><path d="M3.43,19.22c-.17,0-.25-.18-.25-.54v-.18c0-.5.09-.66.34-.66h.53v.27h-.52c-.17,0-.23.08-.23.42v.14c0,.17.04.27.12.27h1.35v.27h-1.34v.01Z" fill="#3e5974" stroke-width="0"/><path d="M3.52,20.74c-.19-.03-.26-.2-.32-.57l-.07-.39.12-.1.07.39c.05.3.09.39.2.41v-.29c0-.32.07-.53.25-.53h.35c.18,0,.27.23.27.55s-.09.53-.27.53h-.46v.22c0,.05-.03.1-.07.1s-.07-.05-.07-.1v-.22Zm.13-.27h.46c.11,0,.15-.12.15-.27c0-.16-.05-.3-.16-.3h-.33c-.1,0-.13.11-.13.31v.26h.01Z" fill="#3e5974" stroke-width="0"/><path d="M3.58,20.86c0,0,.07.04.07.1v.18c0,.1.02.15.07.15h1.05v.26h-1.02c-.06,0-.1.04-.1.19v.1c0,.05-.03.1-.07.1s-.07-.05-.07-.1v-.12c0-.13.02-.23.07-.3-.05-.07-.07-.18-.07-.29v-.16c0-.05.03-.1.07-.1v-.01Z" fill="#3e5974" stroke-width="0"/><path d="M3.58,21.74c0,0,.07.04.07.1v.76l.46-.19c.12-.05.18-.11.18-.28c0-.07,0-.12-.04-.23h.13c.03.1.04.19.04.27c0,.27-.08.41-.29.49l-.48.21h-.13v-1.03c0-.05.03-.1.07-.1h-.01Z" fill="#3e5974" stroke-width="0"/><path d="M3.19,23.7l-.07-.39.12-.1.07.39c.05.3.09.39.2.41v-.29c0-.32.07-.53.25-.53h.35c.18,0,.27.23.27.55s-.09.53-.27.53h-.53c-.24,0-.32-.18-.39-.57Zm.46.29h.46c.11,0,.15-.12.15-.27c0-.16-.05-.3-.16-.3h-.33c-.1,0-.13.11-.13.31v.26h.01Z" fill="#3e5974" stroke-width="0"/></g></g></svg>
